# xmcd CD database file
#
# Track frame offsets:
#	150
#	17848
#	39616
#	68634
#	89118
#	113287
#	149661
#	170514
#	189696
#	212960
#	240375
#	266460
#	286693
#	315327
#
# Disc length: 4521 seconds
#
# Revision: 1
# Processed by: cddbd v1.5PL3 Copyright (c) Steve Scherf et al.
# Submitted via: CDex 1.51
#
DISCID=c511a70e
DTITLE=Eric Clapton - Erkclusive Collection
DYEAR=2001
DGENRE=Blues
TTITLE0=Change The Word
TTITLE1=Second Nature
TTITLE2=Running On Faith (Unpiugged version)
TTITLE3=Tears In Heaven
TTITLE4=Broken Down
TTITLE5=Double Trouble
TTITLE6=Layla (Unpiugged version)
TTITLE7=Travelin' Light
TTITLE8=Bad Love
TTITLE9=Bell Bottom Blues
TTITLE10=Lead Me On
TTITLE11=Got You On My Mind
TTITLE12=Old Love
TTITLE13=Wonderful Tonight (Live edit)
EXTD=YEAR: 2001
EXTT0=
EXTT1=
EXTT2=
EXTT3=
EXTT4=
EXTT5=
EXTT6=
EXTT7=
EXTT8=
EXTT9=
EXTT10=
EXTT11=
EXTT12=
EXTT13=
PLAYORDER=
